{"title":"[REVO]Lupin III The Castle of Cagliostro[1080p,FLAC][9A1EE6EA].m","uid":10555785,"size":11219843859,"categoryP":"video","categoryS":"hd___movies","magnet":"?xt=urn:btih:de89d0f32c69b536d742a4911ec831aae22617f7&amp;dn=%5BREVO%5DLupin+III+The+Castle+of+Cagliostro%5B1080p%2CFLAC%5D%5B9A1EE6EA%5D.m&amp;tr=udp%3A%2F%2Ftracker.openbittorrent.com%3A80&amp;tr=udp%3A%2F%2Fopen.demonii.com%3A1337&amp;tr=udp%3A%2F%2Ftracker.coppersurfer.tk%3A6969&amp;tr=udp%3A%2F%2Fexodus.desync.com%3A6969","seeders":1,"leechers":2,"uploader":"darkj6","files":1,"time":1405390498,"description":" ______   _______  ______    ___   _      ___  --------|\n|      | |   _   ||    _ |  |   | | |    |   ||   |----|    \n|  _    ||  |_|  ||   | ||  |   |_| |    |   ||   |___ \n| | |   ||       ||   |_||_ |      _|    |   ||    _  |\n| |_|   ||       ||    __  ||     |_  ___|   ||   | | |\n|       ||   _   ||   |  | ||    _  ||       ||   |_| |\n|______| |__| |__||___|  |_||___| |_||_______||_______|\n\n\nGeneral \nUnique ID : 325207737301336882213190308225667388533 (0xF4A8BB6084BFF30FA1030ECE4E315475) \nComplete name : C:Encodeproject[REVO]Lupin III The Castle of Cagliostro[1080p,FLAC][9A1EE6EA].mkv \nFormat : Matroska \nFormat version : Version 4 / Version 2 \nFile size : 10.4 GiB \nDuration : 1h 42mn \nOverall bit rate mode : Variable \nOverall bit rate : 14.7 Mbps \nMovie name : Lupin.III.The.Castle.of.Cagliostro.1979 \nEncoded date : UTC 2014-07-13 22:42:08 \nWriting application : mkvmerge v7.0.0 ('Where We Going') 64bit built on Jun 9 2014 14:10:01 \nWriting library : libebml v1.3.0 + libmatroska v1.4.1 \nDURATION : 01:38:29.500000000 \nNUMBER_OF_FRAMES : 876 \nNUMBER_OF_BYTES : 62908 \n_STATISTICS_WRITING_APP : mkvmerge v7.0.0 ('Where We Going') 64bit built on Jun 9 2014 14:10:01 \n_STATISTICS_WRITING_DATE_UTC : 2014-07-13 22:42:08 \n_STATISTICS_TAGS : BPS DURATION NUMBER_OF_FRAMES NUMBER_OF_BYTES \nAttachment : Yes / Yes / Yes / Yes / Yes / Yes / Yes / Yes \n\nVideo \nID : 1 \nFormat : AVC \nFormat/Info : Advanced Video Codec \nFormat profile : High &lt;a class=&quot;__cf_email__&quot; href=&quot;/cdn-cgi/l/email-protection&quot; data-cfemail=&quot;013031414d342f30&quot;&gt;[email&amp;#160;protected]&lt;/a&gt;&lt;script cf-hash='f9e31' type=&quot;text/javascript&quot;&gt;\n/* &lt;![CDATA[ */!function(){try{var t=&quot;currentScript&quot;in document?document.currentScript:function(){for(var t=document.getElementsByTagName(&quot;script&quot;),e=t.length;e--;)if(t[e].getAttribute(&quot;cf-hash&quot;))return t[e]}();if(t&amp;&amp;t.previousSibling){var e,r,n,i,c=t.previousSibling,a=c.getAttribute(&quot;data-cfemail&quot;);if(a){for(e=&quot;&quot;,r=parseInt(a.substr(0,2),16),n=2;a.length-n;n+=2)i=parseInt(a.substr(n,2),16)^r,e+=String.fromCharCode(i);e=document.createTextNode(e),c.parentNode.replaceChild(e,c)}}}catch(u){}}();/* ]]&gt; */&lt;/script&gt; \nFormat settings, CABAC : Yes \nFormat settings, ReFrames : 16 frames \nCodec ID : V_MPEG4/ISO/AVC \nDuration : 1h 42mn \nWidth : 1 920 pixels \nHeight : 1 040 pixels \nDisplay aspect ratio : 1.85:1 \nFrame rate mode : Constant \nFrame rate : 23.976 fps \nColor space : YUV \nChroma subsampling : 4:2:0 \nBit depth : 10 bits \nScan type : Progressive \nWriting library : x264 core 142 r2431+42 c69a006 tMod [10-bit@all X86_64] \nEncoding settings : cabac=1 / ref=16 / deblock=1:-3:-3 / analyse=0x3:0x133 / me=umh / subme=11 / psy=1 / fade_compensate=0.00 / psy_rd=1.15:0.00 / mixed_ref=1 / me_range=48 / chroma_me=1 / trellis=2 / 8x8dct=1 / cqm=0 / deadzone=21,11 / fast_pskip=0 / chroma_qp_offset=-2 / threads=6 / lookahead_threads=1 / sliced_threads=0 / nr=0 / decimate=0 / interlaced=0 / bluray_compat=0 / constrained_intra=0 / fgo=0 / bframes=8 / b_pyramid=2 / b_adapt=2 / b_bias=0 / direct=3 / weightb=1 / open_gop=0 / weightp=2 / keyint=240 / keyint_min=23 / scenecut=40 / intra_refresh=0 / rc_lookahead=240 / rc=crf / mbtree=0 / crf=16.4000 / qcomp=0.70 / qpmin=0:0:0 / qpmax=69:69:69 / qpstep=4 / vbv_maxrate=38000 / vbv_bufsize=30000 / crf_max=0.0 / nal_hrd=none / filler=0 / ip_ratio=1.40 / pb_ratio=1.30 / aq=4:0.70 / aq-sensitivity=10.00 / aq-factor=1.00:1.00:1.00 / aq2=1:0.60 / aq2-sensitivity=15.00 / aq2-factor=1.00:1.00:1.00 / aq3=0 \nLanguage : English \nDefault : Yes \nForced : No \nDURATION : 01:39:29.047000000 \nNUMBER_OF_FRAMES : 143114 \nNUMBER_OF_BYTES : 9818801996 \n_STATISTICS_WRITING_APP : mkvmerge v7.0.0 ('Where We Going') 64bit built on Jun 9 2014 14:10:01 \n_STATISTICS_WRITING_DATE_UTC : 2014-07-13 22:42:08 \n_STATISTICS_TAGS : BPS DURATION NUMBER_OF_FRAMES NUMBER_OF_BYTES \n\nAudio #1 \nID : 2 \nFormat : FLAC \nFormat/Info : Free Lossless Audio Codec \nCodec ID : A_FLAC \nDuration : 1h 42mn \nBit rate mode : Variable \nChannel(s) : 6 channels \nSampling rate : 48.0 KHz \nBit depth : 16 bits \nDelay relative to video : 1s 0ms \nTitle : FLAC 5.1 \nWriting library : libFLAC 1.2.1 (UTC 2007-09-17) \nLanguage : Japanese \nDefault : Yes \nForced : No \n\nAudio #2 \nID : 3 \nFormat : AC-3 \nFormat/Info : Audio Coding 3 \nMode extension : CM (complete main) \nFormat settings, Endianness : Big \nCodec ID : A_AC3 \nDuration : 1h 42mn \nBit rate mode : Constant \nBit rate : 192 Kbps \nChannel(s) : 2 channels \nChannel positions : Front: L R \nSampling rate : 48.0 KHz \nBit depth : 16 bits \nCompression mode : Lossy \nDelay relative to video : 1s 3ms \nStream size : 140 MiB (1%) \nTitle : Streamline Dub (AC3, 2.0, 192kbps) \nLanguage : English \nDefault : No \nForced : No \n\nAudio #3 \nID : 4 \nFormat : AC-3 \nFormat/Info : Audio Coding 3 \nMode extension : CM (complete main) \nFormat settings, Endianness : Big \nCodec ID : A_AC3 \nDuration : 1h 42mn \nBit rate mode : Constant \nBit rate : 192 Kbps \nChannel(s) : 2 channels \nChannel positions : Front: L R \nSampling rate : 48.0 KHz \nBit depth : 16 bits \nCompression mode : Lossy \nDelay relative to video : 1s 5ms \nStream size : 140 MiB (1%) \nTitle : Manga Entertainment Dub (AC3, 2.0, 192kbps) \nLanguage : English \nDefault : No \nForced : No \n\nText \nID : 5 \nFormat : ASS \nCodec ID : S_TEXT/ASS \nCodec ID/Info : Advanced Sub Station Alpha \nCompression mode : Lossless \nLanguage : English \nDefault : Yes \nForced : No \n\nMenu \n00:00:00.000 : en:Chapter 1 \n00:02:04.458 : en:Chapter 2 \n00:03:59.573 : en:Chapter 3 \n00:09:00.749 : en:Chapter 4 \n00:13:58.337 : en:Chapter 5 \n00:19:29.001 : en:Chapter 6 \n00:24:53.075 : en:Chapter 7 \n00:29:09.039 : en:Chapter 8 \n00:35:00.015 : en:Chapter 9 \n00:40:24.672 : en:Chapter 10 \n00:46:40.715 : en:Chapter 11 \n00:51:20.536 : en:Chapter 12 \n00:56:46.028 : en:Chapter 13 \n01:02:14.606 : en:Chapter 14 \n01:06:37.785 : en:Chapter 15 \n01:11:56.020 : en:Chapter 16 \n01:17:02.993 : en:Chapter 17 \n01:22:36.285 : en:Chapter 18 \n01:28:31.514 : en:Chapter 19 \n01:35:16.711 : en:Chapter 20 \n\n &lt;a href=&quot;\nhttp://imgbox.com/sxZ4ff7p&quot; rel=&quot;nofollow&quot; target=&quot;_NEW&quot;&gt;\nhttp://imgbox.com/sxZ4ff7p&lt;/a&gt;\n &lt;a href=&quot;\nhttp://imgbox.com/XrvqVRCW&quot; rel=&quot;nofollow&quot; target=&quot;_NEW&quot;&gt;\nhttp://imgbox.com/XrvqVRCW&lt;/a&gt;\n &lt;a href=&quot;\nhttp://imgbox.com/e2zOrBSh&quot; rel=&quot;nofollow&quot; target=&quot;_NEW&quot;&gt;\nhttp://imgbox.com/e2zOrBSh&lt;/a&gt;","torrent":{"xt":"urn:btih:de89d0f32c69b536d742a4911ec831aae22617f7","amp;dn":"%5BREVO%5DLupin+III+The+Castle+of+Cagliostro%5B1080p%2CFLAC%5D%5B9A1EE6EA%5D.m","amp;tr":["udp%3A%2F%2Ftracker.openbittorrent.com%3A80","udp%3A%2F%2Fopen.demonii.com%3A1337","udp%3A%2F%2Ftracker.coppersurfer.tk%3A6969","udp%3A%2F%2Fexodus.desync.com%3A6969"],"infoHash":"de89d0f32c69b536d742a4911ec831aae22617f7","infoHashBuffer":{"type":"Buffer","data":[222,137,208,243,44,105,181,54,215,66,164,145,30,200,49,170,226,38,23,247]},"announce":[],"urlList":[]}}